<svg xmlns="http://www.w3.org/2000/svg" xmlns:xlink="http://www.w3.org/1999/xlink" width="470" height="120">
<style type="text/css">
	.st0{fill:#010101;}
	.st1{fill:none;stroke:#00AEEF;stroke-width:3;stroke-linecap:round;stroke-miterlimit:10;}
	.st2{fill:none;stroke:#00AEEF;stroke-width:3;stroke-linecap:round;stroke-miterlimit:10;stroke-dasharray:0.4997,4.9973;}
</style>
<path class="st0" d="M56.5,53.8l-4.9,7.8l-9.2,0.1c0.6-1.3,1.2-4.3-0.1-5.1c-1.5-0.9-4.4,1.7-4.9,2.6l-1.6,2.6l-6.5,0.1l-3.5,5.7
	l5.7,1.2l-0.1,0.2l4.8,3l1.2-1.9l8,1.7l-6.5,10.5L31.6,84l-2,3.2l8.7,0.2l5.2,3.2l4.1,7.7l2-3.2L47.9,88l6.5-10.5l5.1,6.4l-1.2,1.9
	l4.8,3l0.1-0.2l3.6,4.5l3.5-5.7l-2.8-5.8l1.6-2.6c0.6-0.9,1.6-4.7,0.1-5.6c-1.3-0.8-3.7,1.1-4.6,2.2l-4-8.3l4.9-7.8
	c1.7-2.7,5.6-13.1,2.9-14.8C65.7,43,58.1,51.2,56.5,53.8z"/>
<path class="st0" d="M241.9,63.2l-8.4-3.8l-1.2-9.2c1.4,0.4,4.5,0.6,5.1-0.7c0.7-1.6-2.2-4.1-3.2-4.6l-2.8-1.3l-0.9-6.4l-6.1-2.8
	l-0.5,5.8l-0.2-0.1l-2.4,5.1l2.1,1l-0.7,8.2l-11.2-5.2l-2.6-7l-3.4-1.6l0.8,8.7l-2.5,5.5l-7.2,5l3.4,1.6l7-2.6l11.2,5.2l-5.7,5.9
	l-2.1-1l-2.4,5.1l0.2,0.1l-4,4.2l6.1,2.8l5.4-3.5l2.8,1.3c1,0.5,4.9,1,5.6-0.6c0.6-1.4-1.6-3.5-2.8-4.3l7.7-5l8.4,3.8
	c2.9,1.3,13.6,4,15,1C253.8,71,244.7,64.6,241.9,63.2z"/>
<path class="st0" d="M424.3,51.4l-4.5,8l-9.2,0.5c0.5-1.4,1-4.4-0.3-5.1c-1.5-0.8-4.3,1.9-4.8,2.8l-1.5,2.6l-6.5,0.4l-3.3,5.9l5.7,1
	l-0.1,0.2l4.9,2.8l1.1-2l8.1,1.4l-6,10.8l-7.1,2l-1.8,3.3l8.7-0.2l5.3,3l4.4,7.5l1.8-3.3l-2-7.1l6-10.8l5.4,6.2l-1.1,2l4.9,2.8
	l0.1-0.2l3.8,4.4l3.3-5.9l-3.1-5.7l1.5-2.6c0.5-0.9,1.4-4.8-0.1-5.6c-1.3-0.7-3.6,1.3-4.5,2.4l-4.4-8.1l4.5-8
	c1.5-2.7,5-13.3,2.2-14.9C432.9,40.1,425.8,48.6,424.3,51.4z"/>
<path class="st1" d="M420.8,68.3c0,0,0,0.1-0.1,0.1"/>
<path class="st2" d="M418.2,72.7c-77.7,125.5-279.1-136-363.4-5"/>
<path class="st1" d="M53.4,69.9c0,0-0.1,0.1-0.1,0.1"/>
</svg>
